<svg width="389.7" height="72.802" viewBox="0 0 389.7 72.802" xmlns="http://www.w3.org/2000/svg"><g id="svgGroup" stroke-linecap="round" fill-rule="evenodd" font-size="9pt" stroke="#eceff4" stroke-width="0.25mm" fill="#eceff4" style="stroke:#eceff4;stroke-width:0.25mm;fill:#eceff4"><path d="M 221.8 66.201 L 238 22.501 L 243.6 22.501 L 224.8 72.001 L 218.7 72.001 L 204.9 29.601 L 188.5 72.001 L 182.4 72.001 L 166.7 22.501 L 172.5 22.501 L 185.7 65.901 L 202.3 22.501 L 207.8 22.501 L 221.8 66.201 Z M 0 51.001 L 5.4 50.301 A 35.598 35.598 0 0 0 6.628 55.356 Q 7.463 57.902 8.641 59.873 A 14.613 14.613 0 0 0 11.75 63.601 Q 15.315 66.603 21.499 67.352 A 36.668 36.668 0 0 0 25.9 67.601 Q 31.899 67.601 35.946 65.412 A 14.097 14.097 0 0 0 38.2 63.901 Q 42.7 60.201 42.7 53.801 A 16.244 16.244 0 0 0 42.481 51.051 Q 42.221 49.534 41.649 48.312 A 8.303 8.303 0 0 0 40.85 46.951 A 10.318 10.318 0 0 0 38.455 44.619 Q 37.353 43.834 35.956 43.196 A 19.424 19.424 0 0 0 35.15 42.851 Q 31.3 41.301 25.4 40.001 A 70.198 70.198 0 0 1 19.605 38.539 A 51.459 51.459 0 0 1 14.45 36.701 Q 9.7 34.701 7.05 30.801 A 13.817 13.817 0 0 1 5.238 26.833 Q 4.714 25.016 4.518 22.841 A 30.482 30.482 0 0 1 4.4 20.101 Q 4.4 14.301 7.2 9.751 Q 10 5.201 14.95 2.601 Q 19.9 0.001 26.2 0.001 A 27.272 27.272 0 0 1 32.66 0.726 A 19.416 19.416 0 0 1 40.85 4.851 A 18.896 18.896 0 0 1 46.263 12.809 A 27.693 27.693 0 0 1 47.7 18.801 L 42.6 19.601 A 27.837 27.837 0 0 0 41.49 15.207 Q 40.708 12.961 39.575 11.237 A 12.878 12.878 0 0 0 37.3 8.601 A 13.203 13.203 0 0 0 32.324 5.922 Q 30.357 5.332 28.002 5.166 A 27.063 27.063 0 0 0 26.1 5.101 A 20.85 20.85 0 0 0 21.094 5.67 A 14.791 14.791 0 0 0 14.5 9.151 A 13.418 13.418 0 0 0 10.207 17.872 A 18.659 18.659 0 0 0 10.1 19.901 A 19.299 19.299 0 0 0 10.33 22.976 Q 10.602 24.656 11.193 26.024 A 9.757 9.757 0 0 0 12.05 27.601 A 11.832 11.832 0 0 0 15.23 30.757 A 16.195 16.195 0 0 0 17.85 32.201 A 34.54 34.54 0 0 0 21.41 33.528 Q 23.234 34.103 25.334 34.584 A 65.142 65.142 0 0 0 27.3 35.001 Q 34.4 36.501 39.05 38.601 Q 43.7 40.701 46.05 44.251 Q 47.958 47.133 48.317 51.632 A 27.305 27.305 0 0 1 48.4 53.801 A 18.915 18.915 0 0 1 47.629 59.293 A 16.136 16.136 0 0 1 45.5 63.751 A 18.807 18.807 0 0 1 39.302 69.436 A 23.154 23.154 0 0 1 37.45 70.401 Q 32.3 72.801 25.5 72.801 A 38.153 38.153 0 0 1 18.38 72.177 Q 14.298 71.401 11.083 69.659 A 20.077 20.077 0 0 1 7.75 67.401 Q 1.3 62.001 0 51.001 Z M 65.6 72.001 L 60.3 72.001 L 60.3 22.501 L 65.8 22.501 L 65.2 41.901 A 45.381 45.381 0 0 1 67.196 35.629 Q 69.48 30.004 73 26.651 Q 78.3 21.601 85.7 21.601 A 17.116 17.116 0 0 1 90.477 22.231 A 12.527 12.527 0 0 1 97.05 26.701 A 16.414 16.414 0 0 1 99.667 31.837 Q 100.902 35.729 100.902 41.025 A 46.194 46.194 0 0 1 100.9 41.501 L 100.7 72.001 L 95.3 72.001 L 95.5 42.301 Q 95.6 34.501 92.9 30.601 A 8.737 8.737 0 0 0 87.163 26.945 A 13.775 13.775 0 0 0 84.5 26.701 Q 79 26.701 74.75 31.001 A 18.165 18.165 0 0 0 71.984 34.716 Q 69.639 38.781 68.05 45.201 Q 65.712 54.649 65.605 70.472 A 226.589 226.589 0 0 0 65.6 72.001 Z M 290.7 1.001 L 290.7 5.901 L 258.8 5.901 L 258.8 34.501 L 290.1 34.501 L 290.1 39.401 L 258.8 39.401 L 258.8 72.001 L 253.2 72.001 L 253.2 1.001 L 290.7 1.001 Z M 368.3 51.301 L 353.2 72.001 L 346.9 72.001 L 365.2 47.001 L 347.7 22.501 L 354.3 22.501 L 368.6 42.501 L 383 22.501 L 389.3 22.501 L 371.6 46.701 L 389.7 72.001 L 383.1 72.001 L 368.3 51.301 Z M 144.172 22.575 A 23.716 23.716 0 0 0 137.2 21.601 A 26.284 26.284 0 0 0 134.327 21.754 A 20.692 20.692 0 0 0 125 25.051 A 22.111 22.111 0 0 0 121.971 27.464 A 23.546 23.546 0 0 0 116.95 34.501 Q 114.1 40.501 114.1 48.001 A 43.308 43.308 0 0 0 114.139 49.855 Q 114.576 60.046 119.9 66.151 A 18.574 18.574 0 0 0 129.178 71.942 A 25.649 25.649 0 0 0 136 72.801 A 24.439 24.439 0 0 0 136.717 72.79 A 20.025 20.025 0 0 0 147.7 69.301 A 22.721 22.721 0 0 0 151.014 66.531 A 24.889 24.889 0 0 0 155.7 59.801 A 27.999 27.999 0 0 0 157.682 54.264 A 33.363 33.363 0 0 0 158.6 46.301 A 42.956 42.956 0 0 0 158.561 44.462 Q 158.128 34.355 152.85 28.251 A 18.383 18.383 0 0 0 144.172 22.575 Z M 326.872 22.575 A 23.716 23.716 0 0 0 319.9 21.601 A 26.284 26.284 0 0 0 317.027 21.754 A 20.692 20.692 0 0 0 307.7 25.051 A 22.111 22.111 0 0 0 304.671 27.464 A 23.546 23.546 0 0 0 299.65 34.501 Q 296.8 40.501 296.8 48.001 A 43.308 43.308 0 0 0 296.839 49.855 Q 297.276 60.046 302.6 66.151 A 18.574 18.574 0 0 0 311.878 71.942 A 25.649 25.649 0 0 0 318.7 72.801 A 24.439 24.439 0 0 0 319.417 72.79 A 20.025 20.025 0 0 0 330.4 69.301 A 22.721 22.721 0 0 0 333.714 66.531 A 24.889 24.889 0 0 0 338.4 59.801 A 27.999 27.999 0 0 0 340.382 54.264 A 33.363 33.363 0 0 0 341.3 46.301 A 42.956 42.956 0 0 0 341.261 44.462 Q 340.828 34.355 335.55 28.251 A 18.383 18.383 0 0 0 326.872 22.575 Z M 136 67.701 Q 141 67.701 144.8 65.001 A 16.945 16.945 0 0 0 149.491 59.876 A 21.563 21.563 0 0 0 150.75 57.451 A 24.654 24.654 0 0 0 152.572 51.001 A 32.426 32.426 0 0 0 152.9 46.301 Q 152.9 39.888 151.009 35.48 A 15.843 15.843 0 0 0 148.75 31.701 A 13.547 13.547 0 0 0 139.076 26.68 A 19.318 19.318 0 0 0 137.3 26.601 A 17.212 17.212 0 0 0 132.086 27.366 A 14.863 14.863 0 0 0 128.05 29.351 A 17.291 17.291 0 0 0 122.742 35.346 A 21.329 21.329 0 0 0 121.95 36.951 A 24.816 24.816 0 0 0 120.078 43.719 A 31.949 31.949 0 0 0 119.8 48.001 A 34.202 34.202 0 0 0 120.215 53.509 Q 120.7 56.476 121.752 58.857 A 15.756 15.756 0 0 0 124.05 62.601 Q 128.3 67.701 136 67.701 Z M 318.7 67.701 Q 323.7 67.701 327.5 65.001 A 16.945 16.945 0 0 0 332.191 59.876 A 21.563 21.563 0 0 0 333.45 57.451 A 24.654 24.654 0 0 0 335.272 51.001 A 32.426 32.426 0 0 0 335.6 46.301 Q 335.6 39.888 333.709 35.48 A 15.843 15.843 0 0 0 331.45 31.701 A 13.547 13.547 0 0 0 321.776 26.68 A 19.318 19.318 0 0 0 320 26.601 A 17.212 17.212 0 0 0 314.786 27.366 A 14.863 14.863 0 0 0 310.75 29.351 A 17.291 17.291 0 0 0 305.442 35.346 A 21.329 21.329 0 0 0 304.65 36.951 A 24.816 24.816 0 0 0 302.778 43.719 A 31.949 31.949 0 0 0 302.5 48.001 A 34.202 34.202 0 0 0 302.915 53.509 Q 303.4 56.476 304.452 58.857 A 15.756 15.756 0 0 0 306.75 62.601 Q 311 67.701 318.7 67.701 Z" vector-effect="non-scaling-stroke"/></g></svg>